<?xml version="1.0" encoding="UTF-8"?> <svg xmlns="http://www.w3.org/2000/svg" width="39" height="39" viewBox="0 0 39 39" fill="none"> <path d="M13.6291 33.7631C6.37937 31.9759 1 25.4269 1 17.625C1 8.44563 8.44562 1 17.625 1C26.8044 1 34.25 8.44563 34.25 17.625C34.25 18.3138 34.2084 18.9966 34.1253 19.6616" stroke="#1C1B29" stroke-linecap="round" stroke-linejoin="round"></path> <path d="M22.9687 17.625H18.8125" stroke="#4C9FFF" stroke-linecap="round" stroke-linejoin="round"></path> <path d="M17.625 16.4375V8.125" stroke="#4C9FFF" stroke-linecap="round" stroke-linejoin="round"></path> <path d="M17.625 3.375V4.5625" stroke="#4C9FFF" stroke-linecap="round" stroke-linejoin="round"></path> <path d="M31.875 17.625H30.6875" stroke="#4C9FFF" stroke-linecap="round" stroke-linejoin="round"></path> <path d="M4.5625 17.625H3.375" stroke="#4C9FFF" stroke-linecap="round" stroke-linejoin="round"></path> <path d="M17.625 18.8125C18.2808 18.8125 18.8125 18.2808 18.8125 17.625C18.8125 16.9692 18.2808 16.4375 17.625 16.4375C16.9692 16.4375 16.4375 16.9692 16.4375 17.625C16.4375 18.2808 16.9692 18.8125 17.625 18.8125Z" stroke="#4C9FFF" stroke-linecap="round" stroke-linejoin="round"></path> <path d="M23.1469 32.4688H29.9156" stroke="#1C1B29" stroke-linecap="round" stroke-linejoin="round"></path> <path d="M32.5756 26.5312H20.4868" stroke="#1C1B29" stroke-linecap="round" stroke-linejoin="round"></path> <path d="M34.0523 29.1243C33.8937 29.3151 33.719 29.4932 33.5315 29.6569C33.4331 29.7435 33.305 29.7893 33.1727 29.7944C32.467 29.8207 31.7469 29.8503 31.0446 29.8758" stroke="#1C1B29" stroke-linecap="round" stroke-linejoin="round"></path> <path d="M19.0101 29.1243C19.1687 29.3151 19.3435 29.4932 19.5309 29.6569C19.6293 29.7435 19.7574 29.7893 19.8897 29.7944C20.5954 29.8207 21.3156 29.8503 22.0179 29.8758" stroke="#1C1B29" stroke-linecap="round" stroke-linejoin="round"></path> <path d="M37.737 25.1699L37.5622 24.7093C37.4223 24.3615 37.1288 24.1656 36.8277 24.2182C36.7021 24.2411 36.5554 24.2631 36.401 24.2937C36.3866 24.3013 36.3662 24.3013 36.3518 24.3013C36.0643 24.3513 35.1745 24.5888 34.473 24.7644L33.4212 22.4352C33.0777 21.6744 32.333 21.1875 31.5136 21.1875H21.5462C20.7269 21.1875 19.9821 21.6744 19.6386 22.4352L18.5868 24.7644C17.8862 24.5888 16.9956 24.3505 16.708 24.3013C16.6936 24.3013 16.6733 24.3013 16.6588 24.2937C16.5053 24.2631 16.3586 24.2411 16.2322 24.2182C15.9319 24.1656 15.6376 24.3615 15.4976 24.7093L15.3229 25.1699C15.155 25.6008 15.2737 26.1224 15.6028 26.3642L17.2297 27.1767L16.3526 28.522C16.1228 28.8749 15.9998 29.2896 15.9998 29.7137V34.1143C15.9998 34.6648 16.3068 35.1364 16.7513 35.3764V37.0576C16.7513 37.4749 17.088 37.8133 17.5037 37.8133H19.8312C20.2179 37.8133 20.5411 37.519 20.5793 37.1331L20.888 35.4333H32.1693L32.478 37.1331C32.5162 37.519 32.8402 37.8133 33.2262 37.8133H35.5537C35.9693 37.8133 36.306 37.4749 36.306 37.0576V35.3764C36.7513 35.1364 37.0584 34.6648 37.0584 34.1143V29.7137C37.0584 29.2896 36.9354 28.8749 36.7055 28.522L35.8285 27.1767L37.4554 26.365C37.7836 26.1233 37.9032 25.6016 37.7353 25.1707L37.737 25.1699Z" stroke="#1C1B29" stroke-linecap="round" stroke-linejoin="round"></path> <path d="M19.7625 35.4375H33.2999" stroke="#1C1B29" stroke-linecap="round" stroke-linejoin="round"></path> </svg> 