<?xml version="1.0" encoding="UTF-8"?> <svg xmlns="http://www.w3.org/2000/svg" width="29" height="36" viewBox="0 0 29 36" fill="none"> <g clip-path="url(#clip0_80_783)"> <path d="M13.5538 35.3202C13.8769 35.4769 14.2481 35.4769 14.572 35.3202C17.0309 34.1277 27.5633 28.6433 27.5633 22.2124V7.26594C27.5633 6.75406 27.2338 6.30326 26.7453 6.14817C24.8641 5.55031 19.98 3.84272 14.6612 0.724865C14.2923 0.508704 13.8335 0.508704 13.4646 0.724865C8.1458 3.84353 3.2617 5.55111 1.38054 6.14897C0.892768 6.30406 0.5625 6.75486 0.5625 7.26674V22.2124C0.5625 28.6433 11.0949 34.1277 13.5538 35.3202Z" stroke="#1C1B29" stroke-linecap="round" stroke-linejoin="round"></path> <path d="M14.0625 25.875C18.4117 25.875 21.9375 22.3492 21.9375 18C21.9375 13.6508 18.4117 10.125 14.0625 10.125C9.71326 10.125 6.1875 13.6508 6.1875 18C6.1875 22.3492 9.71326 25.875 14.0625 25.875Z" stroke="#1C1B29" stroke-linecap="round" stroke-linejoin="round"></path> <path d="M11.25 18L13.5 20.25L18 15.75" stroke="#4C9FFF" stroke-linecap="round" stroke-linejoin="round"></path> </g> <defs> <clipPath id="clip0_80_783"> <rect width="28.125" height="36" fill="white"></rect> </clipPath> </defs> </svg> 