<?xml version="1.0" encoding="UTF-8"?> <svg xmlns="http://www.w3.org/2000/svg" width="36" height="36" viewBox="0 0 36 36" fill="none"><g clip-path="url(#clip0_80_810)"><path d="M8.11125 11.25H5.64328C5.01188 11.25 4.5 11.7998 4.5 12.4186V14.1792C4.5 14.3536 4.61953 14.5055 4.78828 14.5477L6.58688 14.85L5.625 17.4375V23.625" stroke="#303030" stroke-linecap="round" stroke-linejoin="round"></path><path d="M29.4131 14.8499L30.375 17.4374V23.0624L29.8125 24.7499V26.9999C29.8125 27.3106 29.5608 27.5624 29.25 27.5624H25.875C25.5642 27.5624 25.3125 27.3106 25.3125 26.9999V25.3124" stroke="#303030" stroke-linecap="round" stroke-linejoin="round"></path><path d="M7.875 11.8124L9.58641 8.38963C9.92672 7.71041 10.5834 7.24635 11.3386 7.16057C12.8053 6.99463 15.4027 6.74854 18 6.74854C20.5973 6.74854 23.1947 6.99322 24.6614 7.16057" stroke="#303030" stroke-linecap="round" stroke-linejoin="round"></path><path d="M11.8125 25.3125H26.4375" stroke="#303030" stroke-linecap="round" stroke-linejoin="round"></path><path d="M7.875 20.8123H11.0644C11.4103 20.8123 11.6733 20.5044 11.6198 20.1627L11.5045 19.4272C11.4047 18.7873 10.9463 18.2614 10.3261 18.073L8.87203 17.6328" stroke="#303030" stroke-linecap="round" stroke-linejoin="round"></path><path d="M28.1251 20.8123H24.9357C24.5897 20.8123 24.3268 20.5044 24.3802 20.1627L24.4955 19.4272C24.5954 18.7873 25.0538 18.2614 25.674 18.073L27.128 17.6328" stroke="#303030" stroke-linecap="round" stroke-linejoin="round"></path><path d="M15.1875 22.5H20.8125" stroke="#303030" stroke-linecap="round" stroke-linejoin="round"></path><path d="M9.5625 14.0625C9.5625 14.0625 12.9375 14.625 18 14.625C24.1875 14.625 26.4375 14.0625 26.4375 14.0625" stroke="#303030" stroke-linecap="round" stroke-linejoin="round"></path><path d="M2.8125 32.625V27H8.4375" stroke="#303030" stroke-linecap="round" stroke-linejoin="round"></path><path d="M27.5625 9H33.1875V3.375" stroke="#4C9FFF" stroke-linecap="round" stroke-linejoin="round"></path><path d="M34.5094 12.375C35.1113 14.1398 35.4376 16.0312 35.4376 18C35.4376 27.63 27.6301 35.4375 18.0001 35.4375C11.6621 35.4375 6.11583 32.0569 3.06287 27" stroke="#303030" stroke-linecap="round" stroke-linejoin="round"></path><path d="M32.9372 9C29.8842 3.94313 24.338 0.5625 18 0.5625C8.37 0.5625 0.5625 8.37 0.5625 18C0.5625 19.9688 0.88875 21.8602 1.49063 23.625" stroke="#4C9FFF" stroke-linecap="round" stroke-linejoin="round"></path></g><defs><clipPath id="clip0_80_810"><rect width="36" height="36" fill="white"></rect></clipPath></defs></svg> 