<?xml version="1.0" encoding="UTF-8"?> <svg xmlns="http://www.w3.org/2000/svg" width="33" height="36" viewBox="0 0 33 36" fill="none"> <g clip-path="url(#clip0_70_37)"> <path d="M16.3125 10.6875C18.1765 10.6875 19.6875 9.17646 19.6875 7.3125C19.6875 5.44854 18.1765 3.9375 16.3125 3.9375C14.4485 3.9375 12.9375 5.44854 12.9375 7.3125C12.9375 9.17646 14.4485 10.6875 16.3125 10.6875Z" stroke="#4C9FFF" stroke-linecap="round" stroke-linejoin="round"></path> <path d="M21.375 35.4375C19.125 32.625 19.125 26.4375 19.125 26.4375H21.6562L16.3125 20.8125L10.9688 26.4375H13.5C13.5 26.4375 13.5 32.625 11.25 35.4375" stroke="#222831" stroke-linecap="round" stroke-linejoin="round"></path> <path d="M9.56812 13.9275L0.5625 35.4375" stroke="#222831" stroke-linecap="round" stroke-linejoin="round"></path> <path d="M32.0625 35.4375L23.0569 13.9275" stroke="#222831" stroke-linecap="round" stroke-linejoin="round"></path> <path d="M23.2433 7.4933C23.2433 11.7121 18.1077 16.196 16.6781 17.3113C16.462 17.4801 16.1631 17.4801 15.9469 17.3113C14.5173 16.1968 9.38171 11.7121 9.38171 7.4933C9.38171 3.66589 12.4851 0.5625 16.3125 0.5625C20.1399 0.5625 23.2433 3.66589 23.2433 7.4933Z" stroke="#4C9FFF" stroke-linecap="round" stroke-linejoin="round"></path> </g> <defs> <clipPath id="clip0_70_37"> <rect width="32.625" height="36" fill="white"></rect> </clipPath> </defs> </svg> 