<?xml version="1.0" encoding="UTF-8"?> <svg xmlns="http://www.w3.org/2000/svg" width="36" height="36" viewBox="0 0 36 36" fill="none"> <g clip-path="url(#clip0_80_714)"> <path d="M5.0625 13.5H2.25C1.31766 13.5 0.5625 14.2552 0.5625 15.1875V16.9987C0.5625 17.2575 0.738281 17.4825 0.988594 17.5444L2.8125 18L1.39781 21.3005C1.21781 21.7209 1.125 22.1723 1.125 22.6294V28.0955C1.125 28.4794 1.16437 28.8633 1.24172 29.2387L1.6875 31.3833V34.3111C1.6875 34.9327 2.19094 35.4361 2.8125 35.4361H7.3125C7.93406 35.4361 8.4375 34.9327 8.4375 34.3111V32.0611" stroke="#1C1B29" stroke-linecap="round" stroke-linejoin="round"></path> <path d="M9.10547 7.71753C8.34328 7.8005 7.68094 8.26315 7.33781 8.948L4.5 14.625" stroke="#1C1B29" stroke-linecap="round" stroke-linejoin="round"></path> <path d="M31.5 14.6249L30.0938 11.811" stroke="#1C1B29" stroke-linecap="round" stroke-linejoin="round"></path> <path d="M27.5625 32.0625V34.3125C27.5625 34.9341 28.0659 35.4375 28.6875 35.4375H33.1875C33.8091 35.4375 34.3125 34.9341 34.3125 34.3125V31.3847L34.7583 29.2402C34.8356 28.8647 34.875 28.4808 34.875 28.0969V22.6294C34.875 22.1723 34.7822 21.7195 34.6022 21.3005L33.1875 18L35.0114 17.5444C35.2617 17.4811 35.4375 17.2561 35.4375 16.9987V15.1875C35.4375 14.2552 34.6823 13.5 33.75 13.5H30.9375" stroke="#1C1B29" stroke-linecap="round" stroke-linejoin="round"></path> <path d="M6.75 32.0625H29.25" stroke="#1C1B29" stroke-linecap="round" stroke-linejoin="round"></path> <path d="M3.9375 25.875H8.87625C9.23062 25.875 9.49781 25.5502 9.4275 25.2028L9.23906 24.2578C9.09 23.5125 8.57391 22.8923 7.86797 22.6097L6.1875 21.9375" stroke="#1C1B29" stroke-linecap="round" stroke-linejoin="round"></path> <path d="M32.0624 25.875H27.1237C26.7693 25.875 26.5021 25.5502 26.5724 25.2028L26.7609 24.2578C26.9099 23.5125 27.426 22.8923 28.132 22.6097L29.8124 21.9375" stroke="#1C1B29" stroke-linecap="round" stroke-linejoin="round"></path> <path d="M13.5 28.125H22.5" stroke="#1C1B29" stroke-linecap="round" stroke-linejoin="round"></path> <path d="M6.75 16.875C6.75 16.875 9.5625 17.4375 18 17.4375C27.5625 17.4375 29.8125 16.875 29.8125 16.875" stroke="#1C1B29" stroke-linecap="round" stroke-linejoin="round"></path> <path d="M15.57 4.09781L16.875 4.5L15.57 4.90219C14.5041 5.23125 13.6688 6.06656 13.3397 7.1325L12.9375 8.4375L12.5353 7.1325C12.2062 6.06656 11.3709 5.23125 10.305 4.90219L9 4.5L10.305 4.09781C11.3709 3.76875 12.2062 2.93344 12.5353 1.8675L12.9375 0.5625L13.3397 1.8675C13.6688 2.93344 14.5041 3.76875 15.57 4.09781Z" stroke="#4C9FFF" stroke-linecap="round" stroke-linejoin="round"></path> <path d="M27.9492 7.29984L29.8125 7.875L27.9492 8.45016C26.4248 8.91984 25.2323 10.1123 24.7627 11.6367L24.1875 13.5L23.6123 11.6367C23.1427 10.1123 21.9502 8.91984 20.4258 8.45016L18.5625 7.875L20.4258 7.29984C21.9502 6.83016 23.1427 5.63766 23.6123 4.11328L24.1875 2.25L24.7627 4.11328C25.2323 5.63766 26.4248 6.83016 27.9492 7.29984Z" stroke="#4C9FFF" stroke-linecap="round" stroke-linejoin="round"></path> </g> <defs> <clipPath id="clip0_80_714"> <rect width="36" height="36" fill="white"></rect> </clipPath> </defs> </svg> 