<?xml version="1.0" encoding="UTF-8"?> <svg xmlns="http://www.w3.org/2000/svg" width="36" height="36" viewBox="0 0 36 36" fill="none"> <g clip-path="url(#clip0_76_523)"> <path d="M16.0059 25.8187L10.4399 25.2675C9.65666 25.1901 9.0576 24.5489 9.03932 23.7712C9.01119 22.5787 9.01541 20.7604 9.19823 18.959C9.38104 17.1576 9.74244 15.3745 10.0082 14.2115C10.1826 13.4522 10.8984 12.9431 11.6817 13.0204L17.2476 13.5717C18.0309 13.649 18.6299 14.2903 18.6482 15.0679C18.6763 16.2604 18.6721 18.0787 18.4893 19.8801C18.3065 21.6815 17.9451 23.4647 17.6793 24.6276C17.5049 25.387 16.7892 25.8961 16.0059 25.8187Z" stroke="#4C9FFF" stroke-linecap="round" stroke-linejoin="round"></path> <path d="M12.6744 16.231L15.6276 16.5235" stroke="#4C9FFF" stroke-linecap="round" stroke-linejoin="round"></path> <path d="M12.3792 19.1504L15.3323 19.4429" stroke="#4C9FFF" stroke-linecap="round" stroke-linejoin="round"></path> <path d="M15.5629 22.9262C15.5348 23.2075 15.2803 23.4142 14.9948 23.386C14.7093 23.3579 14.5012 23.1062 14.5307 22.825C14.5589 22.5437 14.8134 22.337 15.0989 22.3651C15.3843 22.3932 15.5925 22.645 15.5629 22.9262Z" stroke="#4C9FFF" stroke-linecap="round" stroke-linejoin="round"></path> <path d="M11.8842 13.0388L12.3201 11.6972C12.4959 11.1586 13.0218 10.8155 13.5843 10.8717L15.7921 11.0911C16.3518 11.146 16.799 11.5819 16.8693 12.1402L17.0465 13.5506" stroke="#4C9FFF" stroke-linecap="round" stroke-linejoin="round"></path> <path d="M14.625 10.9167V9" stroke="#4C9FFF" stroke-linecap="round" stroke-linejoin="round"></path> <path d="M0.5625 28.6876L3.81375 27.4684C4.635 27.1604 5.51672 27.0493 6.38859 27.1421L18.5977 28.4499C19.7817 28.5765 20.5959 29.7015 20.3456 30.8659C20.1305 31.8671 19.1981 32.5463 18.1786 32.4423L12.4102 31.8517" stroke="#1C1B29" stroke-linecap="round" stroke-linejoin="round"></path> <path d="M20.0742 29.3667L28.281 24.9651C29.2204 24.4617 30.3862 24.7064 31.0443 25.5445C31.874 26.6048 31.5646 28.1559 30.389 28.8126L19.5862 34.8623C18.914 35.2392 18.1574 35.4361 17.3868 35.4361H16.8735C16.7357 35.4361 7.59229 34.6669 4.43244 34.4011C3.73494 34.342 3.03463 34.4475 2.38494 34.7076L0.561035 35.4375" stroke="#1C1B29" stroke-linecap="round" stroke-linejoin="round"></path> <path d="M32.6249 3.375H31.4999L21.9374 0.5625H17.4374L10.8083 1.88859C9.75644 2.09953 8.99988 3.02203 8.99988 4.095V6.75C8.99988 7.11562 9.118 7.47 9.33738 7.7625L10.1811 8.8875C10.5003 9.31219 10.9996 9.5625 11.5311 9.5625" stroke="#1C1B29" stroke-linecap="round" stroke-linejoin="round"></path> <path d="M21.9374 4.5H15.1874C13.9443 4.5 12.9374 5.50687 12.9374 6.75C12.9374 7.99313 13.9443 9 15.1874 9H22.4999C22.4999 9 23.0624 12.9375 29.8124 12.9375" stroke="#1C1B29" stroke-linecap="round" stroke-linejoin="round"></path> <path d="M32.6249 15.75H30.9374C30.9374 15.75 27.5624 17.4375 24.7499 16.875L21.9374 16.3125" stroke="#1C1B29" stroke-linecap="round" stroke-linejoin="round"></path> <path d="M35.4374 2.8125H32.6249V15.75C32.6249 16.9931 33.6318 18 34.8749 18H35.4374" stroke="#1C1B29" stroke-linecap="round" stroke-linejoin="round"></path> <path d="M8.99991 3.9375H7.70475C7.11131 3.9375 6.56288 4.24828 6.25772 4.75734L5.53772 5.95688C5.241 6.45188 5.2171 7.06359 5.47585 7.57969L7.11131 10.8506C7.2421 11.1136 7.44038 11.3372 7.68506 11.5003L8.43881 12.0023" stroke="#1C1B29" stroke-linecap="round" stroke-linejoin="round"></path> </g> <defs> <clipPath id="clip0_76_523"> <rect width="36" height="36" fill="white"></rect> </clipPath> </defs> </svg> 