<?xml version="1.0" encoding="UTF-8"?> <svg xmlns="http://www.w3.org/2000/svg" width="36" height="36" viewBox="0 0 36 36" fill="none"> <g clip-path="url(#clip0_80_729)"> <path d="M30.375 13.5V7.875L23.0625 0.5625H5.625V13.5" stroke="#4C9FFF" stroke-linecap="round" stroke-linejoin="round"></path> <path d="M30.375 7.875H23.625C23.3142 7.875 23.0625 7.62328 23.0625 7.3125V5.0625" stroke="#4C9FFF" stroke-linecap="round" stroke-linejoin="round"></path> <path d="M3.375 30.375H4.66453C4.92609 30.375 5.18484 30.4355 5.41969 30.5536L6.18891 30.9375" stroke="#1C1B29" stroke-linecap="round" stroke-linejoin="round"></path> <path d="M14.0625 16.875H10.4977C9.88594 16.875 9.28547 17.0409 8.76094 17.3559L7.28437 18.2419C6.93422 18.4514 6.53484 18.5625 6.12703 18.5625H3.375" stroke="#1C1B29" stroke-linecap="round" stroke-linejoin="round"></path> <path d="M0.5625 17.4375H3.375V30.9375C3.375 32.175 2.3625 33.1875 1.125 33.1875H0.5625" stroke="#1C1B29" stroke-linecap="round" stroke-linejoin="round"></path> <path d="M20.0742 21.1907L29.2823 26.8199C30.0825 27.3135 30.3609 28.3443 29.9152 29.1725C29.4314 30.0725 28.2895 30.3791 27.4205 29.8433L23.625 27.561" stroke="#1C1B29" stroke-linecap="round" stroke-linejoin="round"></path> <path d="M27.1603 29.6858C27.9605 30.1794 28.1208 31.3831 27.6764 32.2114C27.1927 33.1114 26.0508 33.418 25.1817 32.8822L21.1852 30.4353" stroke="#1C1B29" stroke-linecap="round" stroke-linejoin="round"></path> <path d="M23.8922 32.0891C24.6923 32.5827 24.8695 33.674 24.4251 34.5022C23.9414 35.4022 22.7995 35.7088 21.9304 35.173L19.6692 33.7654" stroke="#1C1B29" stroke-linecap="round" stroke-linejoin="round"></path> <path d="M32.625 18.5625H29.873C29.4651 18.5625 29.0644 18.4514 28.7156 18.2419L27.2391 17.3559C26.7145 17.0409 26.1141 16.875 25.5023 16.875H20.9602C20.1277 16.875 19.3106 17.1056 18.6019 17.543L13.1428 20.34C12.7505 20.5819 12.6858 21.1261 13.012 21.4523L13.1794 21.6197C14.3775 22.8178 16.2084 23.1145 17.7244 22.358L21.3736 20.5341" stroke="#1C1B29" stroke-linecap="round" stroke-linejoin="round"></path> <path d="M35.4375 32.625H34.875C33.6319 32.625 32.625 31.6181 32.625 30.375V17.4375H35.4375" stroke="#1C1B29" stroke-linecap="round" stroke-linejoin="round"></path> <path d="M11.0531 26.6078L9.65954 27.6624C8.87204 28.2587 7.7386 28.1026 7.14235 27.3137C6.49689 26.4601 6.66564 25.2339 7.51923 24.5884L8.7947 23.6237C9.5822 23.0274 10.7156 23.1835 11.3119 23.9724L11.4019 24.0906C11.9981 24.8781 11.842 26.0115 11.0531 26.6078Z" stroke="#1C1B29" stroke-linecap="round" stroke-linejoin="round"></path> <path d="M16.7949 31.6731C17.5824 31.0769 18.7017 31.2414 19.298 32.0303L19.388 32.1484C19.9842 32.9359 19.8281 34.0694 19.0392 34.6656L18.4978 35.0748C17.7103 35.6711 16.5769 35.515 15.9806 34.7261C15.3352 33.8725 15.518 32.6392 16.3716 31.9923" stroke="#1C1B29" stroke-linecap="round" stroke-linejoin="round"></path> <path d="M11.1291 26.5473L12.2653 25.7035C13.0528 25.1073 14.1862 25.2634 14.7825 26.0523L14.8725 26.1704C15.4687 26.9579 15.3127 28.0913 14.5237 28.6876L11.6016 30.8996C10.8141 31.4959 9.68062 31.3398 9.08437 30.5509C8.4389 29.6973 8.60765 28.471 9.46125 27.8256L9.82125 27.5401" stroke="#1C1B29" stroke-linecap="round" stroke-linejoin="round"></path> <path d="M14.4113 28.7733L14.8655 28.4386C15.653 27.8424 16.7865 27.9985 17.3827 28.7874L17.4727 28.9055C18.069 29.693 17.9129 30.8264 17.124 31.4227L14.694 33.2621C13.9065 33.8583 12.773 33.7022 12.1768 32.9133C11.5313 32.0597 11.7001 30.8335 12.5537 30.188L13.1907 29.6958" stroke="#1C1B29" stroke-linecap="round" stroke-linejoin="round"></path> </g> <defs> <clipPath id="clip0_80_729"> <rect width="36" height="36" fill="white"></rect> </clipPath> </defs> </svg> 