<?xml version="1.0" encoding="UTF-8"?> <svg xmlns="http://www.w3.org/2000/svg" width="27" height="36" viewBox="0 0 27 36" fill="none"> <g clip-path="url(#clip0_80_787)"> <path d="M10.9688 15.1875H16.0312" stroke="#1C1B29" stroke-linecap="round" stroke-linejoin="round"></path> <path d="M17.505 10.6875H9.495" stroke="#1C1B29" stroke-linecap="round" stroke-linejoin="round"></path> <path d="M19.125 12.6562C19.0061 12.7985 18.8759 12.9319 18.7353 13.0548C18.6613 13.1191 18.5657 13.1537 18.4669 13.1577C17.9389 13.1778 17.4005 13.1995 16.875 13.2187" stroke="#1C1B29" stroke-linecap="round" stroke-linejoin="round"></path> <path d="M7.875 12.6562C7.99393 12.7985 8.12411 12.9319 8.26473 13.0548C8.33866 13.1191 8.43429 13.1537 8.53313 13.1577C9.06107 13.1778 9.59946 13.1995 10.125 13.2187" stroke="#1C1B29" stroke-linecap="round" stroke-linejoin="round"></path> <path d="M21.8813 9.71437L21.7503 9.37125C21.6458 9.1125 21.4265 8.96625 21.2015 9.00562C21.1074 9.0225 20.9974 9.03937 20.8824 9.06187C20.872 9.0675 20.8559 9.0675 20.8455 9.0675C20.6301 9.10446 19.9648 9.28125 19.4408 9.41223L18.6541 7.67893C18.397 7.11241 17.8401 6.75 17.2278 6.75H9.77307C9.15994 6.75 8.60307 7.11241 8.34673 7.67893L7.56003 9.41304C7.0361 9.28205 6.36994 9.10527 6.15458 9.0683C6.14414 9.0683 6.12806 9.0683 6.11762 9.06268C6.00271 9.04018 5.89262 9.0233 5.7986 9.00643C5.5736 8.96705 5.35423 9.1133 5.24976 9.37205L5.11878 9.71518C4.99342 10.0358 5.08182 10.4239 5.32771 10.6039L6.54432 11.2082L5.8886 12.2095C5.71664 12.4722 5.62503 12.7808 5.62503 13.0966V16.3728C5.62503 16.7826 5.85485 17.1338 6.18753 17.3121V18.5633C6.18753 18.8743 6.43905 19.1258 6.75003 19.1258H8.49137C8.78065 19.1258 9.02253 18.9064 9.05065 18.6196L9.22503 17.4383H17.775L17.9494 18.6196C17.9783 18.9072 18.2202 19.1258 18.5087 19.1258H20.25C20.561 19.1258 20.8125 18.8743 20.8125 18.5633V17.3121C21.1452 17.1338 21.375 16.7826 21.375 16.3728V13.0966C21.375 12.7808 21.2834 12.4722 21.1115 12.2095L20.4549 11.2082L21.6715 10.6039C21.9174 10.4239 22.0058 10.0358 21.8805 9.71518L21.8813 9.71437Z" stroke="#1C1B29" stroke-linecap="round" stroke-linejoin="round"></path> <path d="M8.4375 17.4375H18.5625" stroke="#1C1B29" stroke-linecap="round" stroke-linejoin="round"></path> <path d="M26.4375 13.5C26.4375 21.375 16.8509 29.7458 14.1822 31.8262C13.7788 32.1412 13.2212 32.1412 12.8178 31.8262C10.1491 29.7458 0.5625 21.375 0.5625 13.5C0.5625 6.35464 6.35464 0.5625 13.5 0.5625C20.6454 0.5625 26.4375 6.35464 26.4375 13.5Z" stroke="#1C1B29" stroke-linecap="round" stroke-linejoin="round"></path> <path d="M19.9519 29.6663C23.8275 30.195 26.4375 31.1963 26.4375 32.3438C26.4375 34.0538 20.6437 35.4375 13.5 35.4375C6.35625 35.4375 0.5625 34.0538 0.5625 32.3438C0.5625 31.1963 3.1725 30.195 7.04812 29.6663" stroke="#4C9FFF" stroke-linecap="round" stroke-linejoin="round"></path> </g> <defs> <clipPath id="clip0_80_787"> <rect width="27" height="36" fill="white"></rect> </clipPath> </defs> </svg> 