<?xml version="1.0" encoding="UTF-8"?> <svg xmlns="http://www.w3.org/2000/svg" width="42" height="36" viewBox="0 0 42 36" fill="none"> <g clip-path="url(#clip0_80_769)"> <path d="M0.654541 20.9454C0.654541 9.7387 9.7387 0.654541 20.9455 0.654541C32.1522 0.654541 41.2364 9.7387 41.2364 20.9454" stroke="#1C1B29" stroke-linecap="round" stroke-linejoin="round"></path> <path d="M20.9454 3.27272V0.654541" stroke="#1C1B29" stroke-linecap="round" stroke-linejoin="round"></path> <path d="M8.44921 8.44933L6.59778 6.5979" stroke="#1C1B29" stroke-linecap="round" stroke-linejoin="round"></path> <path d="M35.3454 35.3454L33.4417 33.4417" stroke="#1C1B29" stroke-linecap="round" stroke-linejoin="round"></path> <path d="M33.4417 8.44933L35.2931 6.5979" stroke="#1C1B29" stroke-linecap="round" stroke-linejoin="round"></path> <path d="M6.54541 35.3456L8.4492 33.4941" stroke="#1C1B29" stroke-linecap="round" stroke-linejoin="round"></path> <path d="M38.6182 20.9456H41.2363" stroke="#1C1B29" stroke-linecap="round" stroke-linejoin="round"></path> <path d="M0.654541 20.9456H3.27272" stroke="#1C1B29" stroke-linecap="round" stroke-linejoin="round"></path> <path d="M35.3455 35.3455C39.0502 31.6669 41.2364 26.5745 41.2364 20.9455C41.2364 9.73963 32.1513 0.654541 20.9455 0.654541C9.73963 0.654541 0.654541 9.73963 0.654541 20.9455C0.654541 26.5745 2.84072 31.6669 6.54545 35.3455" stroke="#1C1B29" stroke-linecap="round" stroke-linejoin="round"></path> <path d="M10.1407 31.4181C7.51134 28.7065 5.89087 25.012 5.89087 20.9454C5.89087 12.6448 12.6448 5.89087 20.9454 5.89087C29.246 5.89087 36 12.6448 36 20.9454C36 25.012 34.3795 28.7065 31.7501 31.4181" stroke="#1C1B29" stroke-linecap="round" stroke-linejoin="round"></path> <path d="M23.4561 25.2888C23.0456 26.6755 21.5888 27.4666 20.2021 27.0561C18.8154 26.6456 18.0243 25.1888 18.4348 23.8021C18.8453 22.4154 24.8484 11.3657 24.8484 11.3657C24.8484 11.3657 23.8666 23.9021 23.4561 25.2888Z" stroke="#4C9FFF" stroke-linecap="round" stroke-linejoin="round"></path> </g> <defs> <clipPath id="clip0_80_769"> <rect width="41.8909" height="36" fill="white"></rect> </clipPath> </defs> </svg> 