<?xml version="1.0" encoding="utf-8"?>
<!-- Generator: Adobe Illustrator 15.0.0, SVG Export Plug-In  -->
<!DOCTYPE svg PUBLIC "-//W3C//DTD SVG 1.1//EN" "http://www.w3.org/Graphics/SVG/1.1/DTD/svg11.dtd" [
	<!ENTITY ns_flows "http://ns.adobe.com/Flows/1.0/">
]>
<svg version="1.1"
	 xmlns="http://www.w3.org/2000/svg" xmlns:xlink="http://www.w3.org/1999/xlink" xmlns:a="http://ns.adobe.com/AdobeSVGViewerExtensions/3.0/"
	 x="0px" y="0px" viewBox="-0.712 -1.636 24 24" enable-background="new -0.712 -1.636 24 24"
	 xml:space="preserve">
<defs>
</defs>
<path fill="#424242" d="M11.292,10.265H7.927c-0.311,0-0.566,0.256-0.566,0.564s0.256,0.564,0.566,0.564h3.365
	c0.309,0,0.564-0.256,0.564-0.564S11.601,10.265,11.292,10.265L11.292,10.265z M23.962,13.478L23.962,13.478
	c-0.106-1.905-0.405-3.801-0.888-5.645c-0.049-0.231-0.223-0.535-0.435-0.665L11.792,0.115C11.695,0.043,11.577,0,11.449,0H0.559
	v0.004c-0.091,0-0.183,0.024-0.27,0.067C0.023,0.222-0.08,0.56,0.067,0.834l3.861,7.082c-0.014,0.11-0.002,0.222,0.024,0.332
	c0.46,1.741,0.743,3.531,0.842,5.321c0.096,1.779,0.014,3.574-0.251,5.35c-0.015,0.058-0.021,0.12-0.021,0.183
	c0,0.521,0.422,0.941,0.938,0.941h17.296c0.453,0,0.858-0.333,0.926-0.801C23.972,17.341,24.058,15.406,23.962,13.478L23.962,13.478
	z M4.857,7.076L4.857,7.076L4.857,7.076l-0.108,0.01L1.504,1.124h9.778l9.158,5.952H4.857L4.857,7.076z M21.945,18.167
	L21.945,18.167H6.531c0.174-1.554,0.215-3.127,0.131-4.689c-0.082-1.529-0.29-3.044-0.615-4.53h15.379
	c0.356,1.521,0.578,3.068,0.665,4.622C22.177,15.099,22.128,16.643,21.945,18.167L21.945,18.167z"/>
</svg>
