<?xml version="1.0" encoding="utf-8"?>
<!-- Generator: Adobe Illustrator 15.0.0, SVG Export Plug-In  -->
<!DOCTYPE svg PUBLIC "-//W3C//DTD SVG 1.1//EN" "http://www.w3.org/Graphics/SVG/1.1/DTD/svg11.dtd" [
	<!ENTITY ns_flows "http://ns.adobe.com/Flows/1.0/">
]>
<svg version="1.1"
	 xmlns="http://www.w3.org/2000/svg" xmlns:xlink="http://www.w3.org/1999/xlink" xmlns:a="http://ns.adobe.com/AdobeSVGViewerExtensions/3.0/"
	 x="0px" y="0px" viewBox="-1.998 -2 24 24" enable-background="new -1.998 -2 24 24"
	 xml:space="preserve">
<defs>
</defs>
<path fill="#424242" d="M10.002,0c2.762,0,5.263,1.12,7.065,2.933c1.813,1.808,2.937,4.308,2.937,7.07
	c0,2.757-1.124,5.258-2.937,7.065C15.265,18.881,12.764,20,10.002,20c-2.761,0-5.262-1.119-7.066-2.932
	C1.124,15.261,0,12.76,0,10.003C0,7.24,1.124,4.74,2.936,2.933C4.74,1.12,7.241,0,10.002,0L10.002,0z M9.1,9.54L9.1,9.54V4.918
	c0-0.253-0.213-0.462-0.467-0.462c-0.253,0-0.458,0.209-0.458,0.462V9.54H6.362V4.918c0-0.253-0.205-0.462-0.458-0.462
	S5.444,4.665,5.444,4.918v5.069v0.016v0.011v5.068c0,0.254,0.206,0.46,0.459,0.46s0.458-0.206,0.458-0.46v-4.621h1.813v4.621
	c0,0.254,0.206,0.46,0.458,0.46c0.253,0,0.467-0.206,0.467-0.46v-4.621h1.805v4.621c0,0.254,0.206,0.46,0.467,0.46
	c0.253,0,0.459-0.206,0.459-0.46v-4.621h2.255h0.016h0.008h0.017l0,0h0.008h0.007l0.009-0.004l0,0h0.008l0,0h0.016l0,0l0.009-0.004
	l0,0h0.008l0.016-0.004l0.008-0.003h0.016l0.008-0.005l0,0l0.017-0.004l0.007-0.004l0.008-0.004l0,0l0.008-0.008h0.017l0.008-0.008
	h0.008h0.009l0.007-0.008l0.009-0.004c0.134-0.083,0.229-0.229,0.229-0.399v-0.04V4.918c0-0.253-0.205-0.462-0.459-0.462
	c-0.261,0-0.459,0.209-0.459,0.462V9.54H11.83V4.918c0-0.253-0.206-0.462-0.459-0.462c-0.261,0-0.467,0.209-0.467,0.462V9.54H9.1
	L9.1,9.54z M15.983,4.02L15.983,4.02c-1.526-1.531-3.646-2.479-5.981-2.479c-2.334,0-4.455,0.948-5.982,2.479
	c-1.527,1.532-2.477,3.648-2.477,5.983c0,2.334,0.949,4.446,2.477,5.981c1.527,1.531,3.648,2.474,5.982,2.474
	c2.335,0,4.455-0.942,5.981-2.474c1.528-1.535,2.478-3.647,2.478-5.981C18.461,7.668,17.512,5.552,15.983,4.02L15.983,4.02z"/>
</svg>
