<?xml version="1.0" encoding="utf-8"?>
<!-- Generator: Adobe Illustrator 15.0.0, SVG Export Plug-In  -->
<!DOCTYPE svg PUBLIC "-//W3C//DTD SVG 1.1//EN" "http://www.w3.org/Graphics/SVG/1.1/DTD/svg11.dtd" [
	<!ENTITY ns_flows "http://ns.adobe.com/Flows/1.0/">
]>
<svg version="1.1"
	 xmlns="http://www.w3.org/2000/svg" xmlns:xlink="http://www.w3.org/1999/xlink" xmlns:a="http://ns.adobe.com/AdobeSVGViewerExtensions/3.0/"
	 x="0px" y="0px" viewBox="-3.443 -1.841 24 24" enable-background="new -3.443 -1.841 24 24"
	 xml:space="preserve">
<defs>
</defs>
<path fill="#424242" d="M11.475,14.03H5.639c-0.543,0-1.07,0.107-1.558,0.313c-1.519,0.629-2.518,2.123-2.518,3.764v0.65h13.988
	v-0.65c0-1.359-0.688-2.639-1.819-3.393c-0.217-0.146-0.454-0.273-0.704-0.379c-0.24-0.096-0.494-0.176-0.755-0.225
	C12.012,14.057,11.745,14.03,11.475,14.03L11.475,14.03z M11.96,12.489L11.96,12.489c0.207,0.018,0.412,0.045,0.615,0.086
	c0.355,0.072,0.709,0.176,1.053,0.32c2.088,0.861,3.486,2.951,3.486,5.211v1.432c0,0.434-0.351,0.779-0.783,0.779h-0.018H0.782
	C0.352,20.317,0,19.971,0,19.538v-0.021v-1.41c0-2.268,1.383-4.334,3.482-5.211c0.531-0.217,1.095-0.357,1.669-0.406
	c-2.032-1.193-3.307-3.42-3.307-5.78C1.845,3.011,4.892,0,8.557,0c3.694,0,6.71,3.047,6.71,6.709
	C15.267,9.068,14.004,11.288,11.96,12.489L11.96,12.489z M8.557,1.56L8.557,1.56c-2.069,0-3.966,1.259-4.761,3.177
	C3.544,5.348,3.408,6.021,3.408,6.709c0,2.054,1.247,3.948,3.146,4.747c1.274,0.535,2.729,0.531,4.003,0
	c1.904-0.804,3.146-2.693,3.146-4.747C13.704,3.892,11.409,1.56,8.557,1.56L8.557,1.56z"/>
</svg>
